#!OML:ASF E:\CV Data\Top Level 1\Subject 1\Session 1\player.ASF
:FULLY-SPECIFIED
:DEGREES
1207
root 7.48789 17.7538 -11.5592 9.0859 -16.2545 -1.43853
lowerback 1.08268 3.03327 -0.312725
upperback -2.84321 4.06563 0.752621
thorax -3.60622 2.04685 0.775283
lowerneck -15.6639 -4.09635 -10.5886
upperneck 15.9055 -4.85931 9.22325
head 7.98603 -2.08726 4.26532
rclavicle -4.99074e-014 -2.26615e-014
rhumerus 2.88556 34.8467 -89.2324
rradius 83.666
rwrist 20.5638
rhand -43.7189 24.7479
rfingers 7.12502
rthumb -16.5506 -4.56626
lclavicle -4.99074e-014 -2.26615e-014
lhumerus -11.857 -21.2448 96.9345
lradius 87.4496
lwrist 51.7976
lhand -24.3032 39.3829
lfingers 7.12502
lthumb 2.18458 69.3515
rfemur -5.46476 -3.87742 20.2706
rtibia 20.9329
rfoot -19.8401 -21.1178
rtoes 0.320468
lfemur -22.3096 0.470452 -16.2659
ltibia 23.2001
lfoot -5.34846 -2.91328
ltoes -5.21373
1208
root 7.48302 17.7501 -11.5688 9.04915 -16.2126 -1.49486
lowerback 1.08741 3.05253 -0.23216
upperback -2.79425 4.093 0.743452
thorax -3.55228 2.05797 0.721474
lowerneck -15.6728 -4.13785 -10.6082
upperneck 15.3784 -4.91277 9.40363
head 7.8247 -2.09551 4.31541
rclavicle -5.92254e-014 -1.15295e-014
rhumerus 3.42653 34.8445 -88.9063
rradius 83.9544
rwrist 20.4183
rhand -43.6403 24.6793
rfingers 7.12502
rthumb -16.4749 -4.64116
lclavicle -5.92254e-014 -1.15295e-014
lhumerus -11.4049 -21.2783 96.7601
lradius 88.0868
lwrist 50.2828
lhand -25.5962 38.7032
lfingers 7.12502
lthumb 0.935764 68.6809
rfemur -5.49496 -3.95315 20.3522
rtibia 21.0489
rfoot -19.8681 -21.0759
rtoes 0.26502
lfemur -22.3902 0.47292 -16.1796
ltibia 23.3854
lfoot -5.39195 -2.92603
ltoes -5.21569
1209
root 7.4782 17.7461 -11.5787 9.0103 -16.1765 -1.5608
lowerback 1.09884 3.07536 -0.142523
upperback -2.75973 4.12562 0.737602
thorax -3.51669 2.07158 0.664956
lowerneck -15.6365 -4.17632 -10.6422
upperneck 14.845 -4.96344 9.59574
head 7.65476 -2.10405 4.37255
rclavicle 8.06693e-014 1.05356e-014
rhumerus 3.96873 34.8461 -88.5665
rradius 84.2559
rwrist 20.268
rhand -43.6298 24.676
rfingers 7.12502
rthumb -16.4648 -4.64537
lclavicle 8.06693e-014 1.05356e-014
lhumerus -10.9533 -21.3269 96.5773
lradius 88.6833
lwrist 48.3302
lhand -26.7078 37.9052
lfingers 7.12502
lthumb -0.137842 67.8849
rfemur -5.51714 -4.01872 20.4433
rtibia 21.153
rfoot -19.8829 -21.0422
rtoes 0.184941
lfemur -22.4695 0.480499 -16.0826
ltibia 23.5799
lfoot -5.44134 -2.9338
ltoes -5.19575
1210
root 7.47331 17.7421 -11.5888 8.96695 -16.1454 -1.63202
lowerback 1.11862 3.1022 -0.0566723
upperback -2.7324 4.16381 0.73934
thorax -3.49412 2.08824 0.61734
lowerneck -15.5885 -4.21662 -10.6875
upperneck 14.324 -5.01352 9.78293
head 7.488 -2.11439 4.43033
rclavicle 1.86485e-014 -1.5704e-014
rhumerus 4.53808 34.8536 -88.1911
rradius 84.5688
rwrist 20.1294
rhand -43.7079 24.7134
rfingers 7.12502
rthumb -16.54 -4.60169
lclavicle 1.86485e-014 -1.5704e-014
lhumerus -10.48 -21.3706 96.3793
lradius 89.2093
lwrist 45.934
lhand -27.5048 37.1809
lfingers 7.12502
lthumb -0.907595 67.1587
rfemur -5.52553 -4.07277 20.5393
rtibia 21.2442
rfoot -19.8985 -21.0104
rtoes 0.123755
lfemur -22.5455 0.494182 -15.9797
ltibia 23.7832
lfoot -5.49777 -2.94142
ltoes -5.15173
1211
root 7.46821 17.7378 -11.5994 8.92406 -16.1036 -1.70576
lowerback 1.14379 3.12355 0.0239227
upperback -2.73421 4.19525 0.754661
thorax -3.50598 2.10188 0.585482
lowerneck -15.4437 -4.24542 -10.7664
upperneck 13.797 -5.04801 9.97064
head 7.30264 -2.12226 4.49641
rclavicle 1.2424e-015 -6.75868e-015
rhumerus 5.08776 34.8779 -87.8099
rradius 84.88
rwrist 20.0264
rhand -43.86 24.7493
rfingers 7.12502
rthumb -16.6864 -4.55355
lclavicle 1.2424e-015 -6.75868e-015
lhumerus -10.0207 -21.3711 96.178
lradius 89.6545
lwrist 43.1429
lhand -27.9713 36.3011
lfingers 7.12502
lthumb -1.35816 66.2765
rfemur -5.56402 -4.12926 20.6415
rtibia 21.4006
rfoot -19.9593 -20.9853
rtoes 0.0791165
lfemur -22.6629 0.505823 -15.8714
ltibia 24.0648
lfoot -5.59515 -2.94845
ltoes -5.08532
1212
root 7.46285 17.7332 -11.6103 8.88258 -16.0596 -1.78425
lowerback 1.12058 3.14039 0.11176
upperback -2.72023 4.22056 0.775874
thorax -3.47398 2.11247 0.559396
lowerneck -15.2685 -4.26773 -10.8606
upperneck 13.2612 -5.07046 10.1531
head 7.10919 -2.127 4.56489
rclavicle 2.64632e-015 2.40529e-014
rhumerus 5.71639 34.9066 -87.3861
rradius 85.1657
rwrist 19.9735
rhand -44.0831 24.7787
rfingers 7.12502
rthumb -16.9012 -4.50585
lclavicle 2.64632e-015 2.40529e-014
lhumerus -9.49198 -21.3103 95.9228
lradius 90.0159
lwrist 40.0836
lhand -28.0715 35.5034
lfingers 7.12502
lthumb -1.455 65.4782
rfemur -5.59244 -4.17775 20.7512
rtibia 21.5418
rfoot -20.0195 -20.9684
rtoes 0.0369262
lfemur -22.7838 0.516484 -15.7561
ltibia 24.352
lfoot -5.69657 -2.95967
ltoes -5.01877
1213
root 7.45791 17.7185 -11.6216 8.84187 -16.0171 -1.86707
lowerback 1.05543 3.15623 0.208948
upperback -2.69198 4.24427 0.800299
thorax -3.40307 2.12221 0.53459
lowerneck -15.0863 -4.28839 -10.9614
upperneck 12.7371 -5.08719 10.321
head 6.91857 -2.13121 4.63048
rclavicle 7.66936e-014 3.43897e-014
rhumerus 6.43754 34.9307 -86.9107
rradius 85.433
rwrist 19.9443
rhand -44.309 24.762
rfingers 7.12502
rthumb -17.1186 -4.50382
lclavicle 7.66936e-014 3.43897e-014
lhumerus -8.8895 -21.1814 95.6126
lradius 90.311
lwrist 36.9357
lhand -27.9297 34.5798
lfingers 7.12502
lthumb -1.31797 64.5555
rfemur -5.61784 -4.23172 20.8619
rtibia 21.6823
rfoot -20.0883 -20.9404
rtoes 0.0081136
lfemur -22.9292 0.516768 -15.6338
ltibia 24.6621
lfoot -5.79344 -2.96702
ltoes -4.98081
1214
root 7.45252 17.7138 -11.631 8.80208 -15.9763 -1.95357
lowerback 0.950889 3.17465 0.315681
upperback -2.64181 4.27074 0.822828
thorax -3.28642 2.13327 0.50573
lowerneck -14.9472 -4.31544 -11.0518
upperneck 12.2448 -5.10822 10.4661
head 6.74615 -2.138 4.68648
rclavicle -5.97348e-014 4.57205e-015
rhumerus 7.27274 34.9221 -86.3798
rradius 85.6749
rwrist 19.9352
rhand -44.5197 24.7362
rfingers 7.12502
rthumb -17.3214 -4.51189
lclavicle -5.97348e-014 4.57205e-015
lhumerus -8.18622 -20.9978 95.2378
lradius 90.5678
lwrist 33.8999
lhand -27.6537 33.5664
lfingers 7.12502
lthumb -1.05146 63.5435
rfemur -5.62216 -4.29653 20.9745
rtibia 21.7938
rfoot -20.1529 -20.896
rtoes -0.0178022
lfemur -23.0512 0.501256 -15.507
ltibia 24.959
lfoot -5.89274 -2.96212
ltoes -4.96979
1215
root 7.44708 17.7091 -11.6397 8.76223 -15.9356 -2.04301
lowerback 0.821041 3.19428 0.431504
upperback -2.58267 4.29816 0.842176
thorax -3.14535 2.14476 0.470566
lowerneck -14.8321 -4.34747 -11.1409
upperneck 11.7942 -5.13445 10.6004
head 6.59217 -2.14766 4.73855
rclavicle -1.3741e-014 5.76476e-015
rhumerus 8.19951 34.8799 -85.8101
rradius 85.904
rwrist 19.9253
rhand -44.6298 24.6054
rfingers 7.12502
rthumb -17.4274 -4.63333
lclavicle -1.3741e-014 5.76476e-015
lhumerus -7.4049 -20.7608 94.8081
lradius 90.8092
lwrist 31.1421
lhand -27.3797 32.4596
lfingers 7.12502
lthumb -0.786786 62.4378
rfemur -5.61593 -4.37069 21.0873
rtibia 21.8932
rfoot -20.2151 -20.8402
rtoes -0.0559574
lfemur -23.1706 0.464702 -15.3748
ltibia 25.2565
lfoot -5.98503 -2.94336
ltoes -4.98986
1216
root 7.44153 17.7046 -11.6476 8.7216 -15.8885 -2.13077
lowerback 0.746053 3.22463 0.536001
upperback -2.54533 4.34001 0.853946
thorax -3.05805 2.16355 0.429375
lowerneck -14.8118 -4.40251 -11.2042
upperneck 11.445 -5.19071 10.7106
head 6.48937 -2.16994 4.7756
rclavicle 1.34055e-014 4.37326e-015
rhumerus 9.16565 34.7619 -85.2257
rradius 86.1311
rwrist 19.9047
rhand -44.6272 24.3977
rfingers 7.12502
rthumb -17.4249 -4.84125
lclavicle 1.34055e-014 4.37326e-015
lhumerus -6.57615 -20.5246 94.3489
lradius 91.0617
lwrist 28.8012
lhand -27.2475 31.3105
lfingers 7.12502
lthumb -0.65911 61.2892
rfemur -5.56445 -4.4535 21.1972
rtibia 21.9071
rfoot -20.2375 -20.7761
rtoes -0.0797321
lfemur -23.2547 0.405272 -15.2417
ltibia 25.4844
lfoot -6.0382 -2.92364
ltoes -5.02683
1217
root 7.43578 17.7001 -11.6554 8.67854 -15.821 -2.21521
lowerback 0.706736 3.25337 0.638924
upperback -2.53787 4.38013 0.857546
thorax -3.02106 2.18127 0.377563
lowerneck -14.7869 -4.46371 -11.264
upperneck 11.1521 -5.26056 10.8229
head 6.40552 -2.1987 4.81206
rclavicle -3.07495e-014 -8.34896e-015
rhumerus 10.1384 34.5895 -84.6564
rradius 86.3579
rwrist 19.8604
rhand -44.5332 24.108
rfingers 7.12502
rthumb -17.3344 -5.13896
lclavicle -3.07495e-014 -8.34896e-015
lhumerus -5.73141 -20.2856 93.8674
lradius 91.3452
lwrist 26.9367
lhand -27.3236 30.1676
lfingers 7.12502
lthumb -0.732605 60.1461
rfemur -5.50938 -4.5458 21.308
rtibia 21.9177
rfoot -20.2577 -20.7241
rtoes -0.109311
lfemur -23.3368 0.324165 -15.1083
ltibia 25.7047
lfoot -6.08541 -2.90713
ltoes -5.06102
1218
root 7.4299 17.6957 -11.6627 8.62596 -15.7426 -2.29811
lowerback 0.729273 3.28346 0.732625
upperback -2.56882 4.42322 0.859221
thorax -3.05899 2.20027 0.323491
lowerneck -14.7565 -4.53346 -11.3286
upperneck 10.9229 -5.34619 10.9371
head 6.34325 -2.23536 4.84902
rclavicle -7.88678e-014 -9.74045e-015
rhumerus 11.0889 34.3651 -84.1123
rradius 86.5864
rwrist 19.7792
rhand -44.3748 23.7701
rfingers 7.12502
rthumb -17.182 -5.49021
lclavicle -7.88678e-014 -9.74045e-015
lhumerus -4.89981 -20.0507 93.3855
lradius 91.6669
lwrist 25.5532
lhand -27.6544 29.0521
lfingers 7.12502
lthumb -1.0521 59.0292
rfemur -5.44295 -4.64184 21.4186
rtibia 21.9272
rfoot -20.278 -20.6805
rtoes -0.130432
lfemur -23.4028 0.226294 -14.974
ltibia 25.9131
lfoot -6.13028 -2.88823
ltoes -5.08774
1219
root 7.42383 17.6913 -11.6703 8.56876 -15.6432 -2.37967
lowerback 0.776493 3.30813 0.824116
upperback -2.62383 4.45977 0.857368
thorax -3.13544 2.21572 0.264746
lowerneck -14.6843 -4.60657 -11.396
upperneck 10.7134 -5.44268 11.0601
head 6.28203 -2.27807 4.88888
rclavicle 1.2511e-014 6.16232e-015
rhumerus 12.0371 34.0933 -83.5912
rradius 86.805
rwrist 19.6465
rhand -44.2404 23.4703
rfingers 7.12502
rthumb -17.0526 -5.80124
lclavicle 1.2511e-014 6.16232e-015
lhumerus -4.06251 -19.8139 92.8931
lradius 92.0142
lwrist 24.5716
lhand -28.1797 28.0199
lfingers 7.12502
lthumb -1.55949 57.994
rfemur -5.37168 -4.74405 21.5334
rtibia 21.9355
rfoot -20.3002 -20.6527
rtoes -0.127996
lfemur -23.4608 0.11424 -14.8379
ltibia 26.107
lfoot -6.17459 -2.87806
ltoes -5.10838
1220
root 7.41783 17.687 -11.6773 8.49858 -15.5499 -2.46146
lowerback 0.802266 3.33419 0.922326
upperback -2.66481 4.49771 0.848979
thorax -3.18419 2.23167 0.197434
lowerneck -14.5903 -4.68188 -11.466
upperneck 10.5018 -5.54594 11.1993
head 6.21823 -2.3238 4.93399
rclavicle 3.17931e-014 5.56597e-015
rhumerus 13.0388 33.7712 -83.0736
rradius 86.9856
rwrist 19.4524
rhand -44.167 23.2361
rfingers 7.12502
rthumb -16.9819 -6.04158
lclavicle 3.17931e-014 5.56597e-015
lhumerus -3.17546 -19.5655 92.3719
lradius 92.3674
lwrist 23.9206
lhand -28.8079 27.0576
lfingers 7.12502
lthumb -2.16617 57.0264
rfemur -5.28603 -4.83804 21.6461
rtibia 21.9411
rfoot -20.3169 -20.6329
rtoes -0.125778
lfemur -23.4926 -0.00291417 -14.701
ltibia 26.2867
lfoot -6.22232 -2.85801
ltoes -5.11975
